<svg width="1200" height="630" viewBox="0 0 1200 630" xmlns="http://www.w3.org/2000/svg"><mask id="satori_om-id"><rect x="0" y="0" width="1200" height="630" fill="#fff"></rect></mask><rect x="0" y="0" width="1200" height="630" fill="#fff"></rect><clipPath id="satori_cp-id-0"><rect x="450" y="54" width="300" height="300"></rect></clipPath><mask id="satori_om-id-0"><rect x="450" y="54" width="300" height="300" fill="#fff"></rect></mask><image x="450" y="54" width="300" height="300" href="data:image/svg+xml;utf8,%3Csvg  fill=%22none%22 xmlns=%22http://www.w3.org/2000/svg%22 width=%22300%22 height=%22300%22 viewBox=%220 0 100 100%22%3E%3Crect width=%22100%22 height=%22100%22 rx=%2250%22 fill=%22black%22%3E%3C/rect%3E%3Cpath d=%22M23.903 48.6086C15.8116 -7.11039 81.9889 24.3506 67.9889 36.3506C19.9889 6.85063 37.3478 70.5496 61.0018 69.8286C109.489 68.3506 31.9943 104.328 23.903 48.6086Z%22 fill=%22white%22%3E%3C/path%3E%3C/svg%3E" preserveAspectRatio="none" clip-path="url(#satori_cp-id-0)" mask="url(#satori_om-id-0)"></image><mask id="satori_om-id-0-0"><rect x="450" y="54" width="0" height="300" fill="#fff"></rect></mask><mask id="satori_om-id-0-1"><rect x="450" y="54" width="0" height="300" fill="#fff"></rect></mask><mask id="satori_om-id-1"><rect x="222" y="394" width="757" height="182" fill="#fff"></rect></mask><path fill="black" d="M327.7 468.4L327.7 468.4L304.4 468.4Q303.8 463.9 301.8 460.3Q299.8 456.8 296.7 454.3Q293.6 451.8 289.6 450.5Q285.6 449.1 280.9 449.1L280.9 449.1Q272.4 449.1 266.2 453.3Q259.9 457.5 256.4 465.5Q252.9 473.4 252.9 484.8L252.9 484.8Q252.9 496.4 256.4 504.4Q259.9 512.3 266.2 516.4Q272.5 520.4 280.8 520.4L280.8 520.4Q285.4 520.4 289.4 519.2Q293.3 518.0 296.4 515.6Q299.5 513.2 301.6 509.8Q303.6 506.4 304.4 502.0L304.4 502.0L327.7 502.1Q326.8 509.6 323.2 516.6Q319.6 523.5 313.6 529.0Q307.5 534.5 299.2 537.6Q290.9 540.8 280.4 540.8L280.4 540.8Q265.8 540.8 254.3 534.2Q242.8 527.6 236.2 515.1Q229.6 502.6 229.6 484.8L229.6 484.8Q229.6 466.9 236.3 454.4Q243.0 441.9 254.5 435.3Q266.0 428.7 280.4 428.7L280.4 428.7Q289.9 428.7 298.0 431.4Q306.1 434.1 312.4 439.1Q318.7 444.2 322.6 451.6Q326.6 458.9 327.7 468.4ZM380.8 540.9L380.8 540.9Q368.4 540.9 359.4 535.6Q350.4 530.3 345.5 520.8Q340.6 511.3 340.6 498.7L340.6 498.7Q340.6 486.0 345.5 476.5Q350.4 467.0 359.4 461.7Q368.4 456.4 380.8 456.4L380.8 456.4Q393.3 456.4 402.3 461.7Q411.3 467.0 416.2 476.5Q421.1 486.0 421.1 498.7L421.1 498.7Q421.1 511.3 416.2 520.8Q411.3 530.3 402.3 535.6Q393.3 540.9 380.8 540.9ZM380.9 523.3L380.9 523.3Q386.6 523.3 390.4 520.1Q394.2 516.9 396.1 511.3Q398.0 505.7 398.0 498.6L398.0 498.6Q398.0 491.4 396.1 485.8Q394.2 480.2 390.4 477.0Q386.6 473.7 380.9 473.7L380.9 473.7Q375.2 473.7 371.4 477.0Q367.5 480.2 365.6 485.8Q363.6 491.4 363.6 498.6L363.6 498.6Q363.6 505.7 365.6 511.3Q367.5 516.9 371.4 520.1Q375.2 523.3 380.9 523.3ZM459.3 540.9L459.3 540.9Q451.4 540.9 445.3 538.1Q439.2 535.4 435.6 530.0Q432.1 524.6 432.1 516.5L432.1 516.5Q432.1 509.6 434.6 505.0Q437.1 500.4 441.4 497.6Q445.7 494.7 451.2 493.3Q456.7 491.9 462.8 491.3L462.8 491.3Q470.0 490.5 474.3 489.9Q478.7 489.2 480.7 487.9Q482.6 486.5 482.6 483.9L482.6 483.9L482.6 483.6Q482.6 478.5 479.5 475.8Q476.3 473.0 470.5 473.0L470.5 473.0Q464.4 473.0 460.7 475.7Q457.1 478.4 455.9 482.4L455.9 482.4L435.0 480.7Q436.6 473.3 441.2 467.8Q445.9 462.3 453.4 459.4Q460.8 456.4 470.6 456.4L470.6 456.4Q477.4 456.4 483.7 458.0Q489.9 459.6 494.8 463.0Q499.7 466.3 502.5 471.6Q505.3 476.8 505.3 484.1L505.3 484.1L505.3 539.3L483.8 539.3L483.8 528.0L483.2 528.0Q481.2 531.8 477.9 534.7Q474.6 537.6 470.0 539.2Q465.3 540.9 459.3 540.9ZM465.8 525.2L465.8 525.2Q470.8 525.2 474.6 523.2Q478.4 521.2 480.6 517.8Q482.8 514.4 482.8 510.1L482.8 510.1L482.8 501.4Q481.7 502.1 479.9 502.6Q478.1 503.2 475.8 503.7Q473.5 504.1 471.2 504.4Q468.9 504.8 467.0 505.1L467.0 505.1Q463.0 505.6 460.1 506.9Q457.1 508.2 455.4 510.4Q453.8 512.5 453.8 515.7L453.8 515.7Q453.8 520.3 457.1 522.8Q460.5 525.2 465.8 525.2ZM523.0 430.2L545.7 430.2L545.7 539.3L523.0 539.3L523.0 430.2ZM593.4 449.2L560.0 449.2L560.0 430.2L649.6 430.2L649.6 449.2L616.2 449.2L616.2 539.3L593.4 539.3L593.4 449.2ZM678.2 539.3L655.5 539.3L655.5 457.5L677.5 457.5L677.5 471.8L678.3 471.8Q680.6 464.2 685.8 460.2Q691.1 456.3 698.0 456.3L698.0 456.3Q699.7 456.3 701.7 456.5Q703.6 456.7 705.1 457.1L705.1 457.1L705.1 477.3Q703.5 476.8 700.7 476.4Q697.9 476.0 695.5 476.0L695.5 476.0Q690.5 476.0 686.6 478.2Q682.7 480.3 680.4 484.2Q678.2 488.0 678.2 493.0L678.2 493.0L678.2 539.3ZM737.8 540.9L737.8 540.9Q730.0 540.9 723.9 538.1Q717.8 535.4 714.2 530.0Q710.7 524.6 710.7 516.5L710.7 516.5Q710.7 509.6 713.2 505.0Q715.7 500.4 720.0 497.6Q724.3 494.7 729.8 493.3Q735.3 491.9 741.4 491.3L741.4 491.3Q748.5 490.5 752.9 489.9Q757.3 489.2 759.3 487.9Q761.2 486.5 761.2 483.9L761.2 483.9L761.2 483.6Q761.2 478.5 758.1 475.8Q754.9 473.0 749.1 473.0L749.1 473.0Q743.0 473.0 739.3 475.7Q735.7 478.4 734.5 482.4L734.5 482.4L713.5 480.7Q715.1 473.3 719.8 467.8Q724.5 462.3 732.0 459.4Q739.4 456.4 749.2 456.4L749.2 456.4Q756.0 456.4 762.3 458.0Q768.5 459.6 773.4 463.0Q778.3 466.3 781.1 471.6Q783.9 476.8 783.9 484.1L783.9 484.1L783.9 539.3L762.4 539.3L762.4 528.0L761.8 528.0Q759.8 531.8 756.5 534.7Q753.2 537.6 748.5 539.2Q743.9 540.9 737.8 540.9ZM744.3 525.2L744.3 525.2Q749.3 525.2 753.2 523.2Q757.0 521.2 759.2 517.8Q761.4 514.4 761.4 510.1L761.4 510.1L761.4 501.4Q760.3 502.1 758.5 502.6Q756.6 503.2 754.4 503.7Q752.1 504.1 749.8 504.4Q747.5 504.8 745.6 505.1L745.6 505.1Q741.6 505.6 738.6 506.9Q735.7 508.2 734.0 510.4Q732.4 512.5 732.4 515.7L732.4 515.7Q732.4 520.3 735.7 522.8Q739.1 525.2 744.3 525.2ZM838.5 540.9L838.5 540.9Q825.9 540.9 816.9 535.6Q807.9 530.2 803.1 520.7Q798.2 511.1 798.2 498.7L798.2 498.7Q798.2 486.2 803.1 476.6Q808.0 467.1 817.0 461.8Q826.0 456.4 838.4 456.4L838.4 456.4Q849.1 456.4 857.2 460.3Q865.2 464.2 869.9 471.2Q874.6 478.3 875.1 487.8L875.1 487.8L853.6 487.8Q852.7 481.6 848.9 477.9Q845.0 474.1 838.8 474.1L838.8 474.1Q833.5 474.1 829.6 477.0Q825.7 479.8 823.5 485.2Q821.3 490.7 821.3 498.4L821.3 498.4Q821.3 506.2 823.5 511.7Q825.6 517.2 829.6 520.1Q833.5 523.0 838.8 523.0L838.8 523.0Q842.7 523.0 845.8 521.4Q848.9 519.8 851.0 516.7Q853.0 513.6 853.6 509.3L853.6 509.3L875.1 509.3Q874.5 518.7 870.0 525.8Q865.4 532.9 857.4 536.9Q849.4 540.9 838.5 540.9ZM925.2 498.6L910.2 515.8L910.3 488.5L913.6 488.5L939.8 457.5L965.8 457.5L930.6 498.6L925.2 498.6ZM912.3 539.3L889.6 539.3L889.6 430.2L912.3 430.2L912.3 539.3ZM967.4 539.3L940.8 539.3L916.7 503.7L931.8 487.6L967.4 539.3Z "></path></svg>