<svg width="1200" height="630" viewBox="0 0 1200 630" xmlns="http://www.w3.org/2000/svg"><defs><pattern id="satori_pattern_id_1" x="0" y="0" width="0.08333333333333333" height="0.15873015873015872" patternUnits="objectBoundingBox"><radialGradient id="satori_radial_id_1"><stop offset="0" stop-color="lightgray"></stop><stop offset="0.02" stop-color="lightgray"></stop><stop offset="0" stop-color="transparent"></stop><stop offset="1" stop-color="transparent"></stop></radialGradient><mask id="satori_mask_id_1"><rect x="0" y="0" width="100" height="100" fill="#fff"></rect></mask><rect x="0" y="0" width="100" height="100" fill="transparent"></rect><circle cx="75" cy="75" width="100" height="100" r="106.06601717798213" fill="url(#satori_radial_id_1)" mask="url(#satori_mask_id_1)"></circle></pattern><pattern id="satori_pattern_id_0" x="0" y="0" width="0.08333333333333333" height="0.15873015873015872" patternUnits="objectBoundingBox"><radialGradient id="satori_radial_id_0"><stop offset="0" stop-color="lightgray"></stop><stop offset="0.02" stop-color="lightgray"></stop><stop offset="0" stop-color="transparent"></stop><stop offset="1" stop-color="transparent"></stop></radialGradient><mask id="satori_mask_id_0"><rect x="0" y="0" width="100" height="100" fill="#fff"></rect></mask><rect x="0" y="0" width="100" height="100" fill="transparent"></rect><circle cx="25" cy="25" width="100" height="100" r="106.06601717798213" fill="url(#satori_radial_id_0)" mask="url(#satori_mask_id_0)"></circle></pattern></defs><mask id="satori_om-id"><rect x="0" y="0" width="1200" height="630" fill="#fff"></rect></mask><rect x="0" y="0" width="1200" height="630" fill="white"></rect><rect x="0" y="0" width="1200" height="630" fill="url(#satori_pattern_id_1)"></rect><rect x="0" y="0" width="1200" height="630" fill="url(#satori_pattern_id_0)"></rect><clipPath id="satori_cp-id-0"><rect x="450" y="94" width="300" height="300"></rect></clipPath><mask id="satori_om-id-0"><rect x="450" y="94" width="300" height="300" fill="#fff"></rect></mask><image x="450" y="94" width="300" height="300" href="data:image/svg+xml;utf8,%3Csvg  fill=%22none%22 xmlns=%22http://www.w3.org/2000/svg%22 width=%22300%22 height=%22300%22 viewBox=%220 0 100 100%22%3E%3Crect x=%221%22 y=%221%22 width=%2298%22 height=%2298%22 rx=%2214%22 fill=%22black%22%3E%3C/rect%3E%3Crect x=%221%22 y=%221%22 width=%2298%22 height=%2298%22 rx=%2214%22 stroke=%22url(%23paint0_linear_1_2)%22 stroke-width=%222%22%3E%3C/rect%3E%3Cpath d=%22M23.903 48.6086C15.8116 -7.11039 81.9889 24.3506 67.9889 36.3506C19.9889 6.85063 37.3478 70.5496 61.0017 69.8286C109.489 68.3506 31.9943 104.328 23.903 48.6086Z%22 fill=%22url(%23paint1_linear_1_2)%22%3E%3C/path%3E%3Cdefs%3E%3ClinearGradient id=%22paint0_linear_1_2%22 x1=%2250%22 y1=%220%22 x2=%2250%22 y2=%22100%22 gradientUnits=%22userSpaceOnUse%22%3E%3Cstop stop-color=%22white%22%3E%3C/stop%3E%3Cstop offset=%221%22 stop-color=%22%238B8B8B%22%3E%3C/stop%3E%3C/linearGradient%3E%3ClinearGradient id=%22paint1_linear_1_2%22 x1=%2252%22 y1=%2215%22 x2=%2252%22 y2=%2286.5%22 gradientUnits=%22userSpaceOnUse%22%3E%3Cstop offset=%220.00551292%22 stop-color=%22white%22%3E%3C/stop%3E%3Cstop offset=%221%22 stop-color=%22%23AEAEAE%22%3E%3C/stop%3E%3C/linearGradient%3E%3C/defs%3E%3C/svg%3E" preserveAspectRatio="none" clip-path="url(#satori_cp-id-0)" mask="url(#satori_om-id-0)"></image><mask id="satori_om-id-0-0"><rect x="450" y="94" width="0" height="300" fill="#fff"></rect></mask><mask id="satori_om-id-0-1"><rect x="450" y="94" width="0" height="300" fill="#fff"></rect></mask><mask id="satori_om-id-0-2"><rect x="450" y="94" width="0" height="300" fill="#fff"></rect></mask><mask id="satori_om-id-0-3"><rect x="450" y="94" width="0" height="300" fill="#fff"></rect></mask><mask id="satori_om-id-0-3-0"><rect x="450" y="94" width="0" height="300" fill="#fff"></rect></mask><mask id="satori_om-id-0-3-0-0"><rect x="450" y="94" width="0" height="300" fill="#fff"></rect></mask><mask id="satori_om-id-0-3-0-1"><rect x="450" y="94" width="0" height="300" fill="#fff"></rect></mask><mask id="satori_om-id-0-3-1"><rect x="450" y="94" width="0" height="300" fill="#fff"></rect></mask><mask id="satori_om-id-0-3-1-0"><rect x="450" y="94" width="0" height="300" fill="#fff"></rect></mask><mask id="satori_om-id-0-3-1-1"><rect x="450" y="94" width="0" height="300" fill="#fff"></rect></mask><mask id="satori_om-id-1"><rect x="346" y="414" width="509" height="122" fill="#fff"></rect></mask><path fill="black" d="M416.5 463.6L416.5 463.6L400.9 463.6Q400.5 460.6 399.2 458.2Q397.9 455.9 395.8 454.2Q393.8 452.5 391.1 451.6Q388.4 450.8 385.3 450.8L385.3 450.8Q379.6 450.8 375.4 453.5Q371.2 456.3 368.9 461.6Q366.6 466.9 366.6 474.5L366.6 474.5Q366.6 482.3 369.0 487.6Q371.3 492.9 375.5 495.6Q379.7 498.3 385.2 498.3L385.2 498.3Q388.3 498.3 390.9 497.5Q393.5 496.6 395.6 495.1Q397.7 493.5 399.0 491.2Q400.4 488.9 400.9 486.0L400.9 486.0L416.5 486.1Q415.9 491.1 413.5 495.7Q411.1 500.4 407.1 504.0Q403.0 507.6 397.5 509.8Q391.9 511.9 384.9 511.9L384.9 511.9Q375.2 511.9 367.5 507.5Q359.9 503.1 355.5 494.7Q351.0 486.4 351.0 474.5L351.0 474.5Q351.0 462.6 355.5 454.3Q360.0 445.9 367.7 441.5Q375.3 437.2 384.9 437.2L384.9 437.2Q391.2 437.2 396.7 438.9Q402.1 440.7 406.3 444.1Q410.5 447.5 413.1 452.4Q415.7 457.3 416.5 463.6ZM451.9 511.9L451.9 511.9Q443.6 511.9 437.6 508.4Q431.6 504.9 428.3 498.5Q425.0 492.2 425.0 483.8L425.0 483.8Q425.0 475.4 428.3 469.0Q431.6 462.7 437.6 459.2Q443.6 455.6 451.9 455.6L451.9 455.6Q460.2 455.6 466.2 459.2Q472.2 462.7 475.5 469.0Q478.7 475.4 478.7 483.8L478.7 483.8Q478.7 492.2 475.5 498.5Q472.2 504.9 466.2 508.4Q460.2 511.9 451.9 511.9ZM452.0 500.2L452.0 500.2Q455.7 500.2 458.3 498.1Q460.8 495.9 462.1 492.2Q463.4 488.5 463.4 483.7L463.4 483.7Q463.4 479.0 462.1 475.2Q460.8 471.5 458.3 469.3Q455.7 467.2 452.0 467.2L452.0 467.2Q448.2 467.2 445.6 469.3Q443.0 471.5 441.7 475.2Q440.4 479.0 440.4 483.7L440.4 483.7Q440.4 488.5 441.7 492.2Q443.0 495.9 445.6 498.1Q448.2 500.2 452.0 500.2ZM508.7 511.8L508.7 511.8Q502.5 511.8 497.5 508.5Q492.4 505.3 489.5 499.1Q486.6 492.8 486.6 483.7L486.6 483.7Q486.6 474.3 489.6 468.1Q492.6 461.8 497.7 458.7Q502.7 455.6 508.7 455.6L508.7 455.6Q513.3 455.6 516.3 457.2Q519.4 458.7 521.3 461.0Q523.2 463.3 524.2 465.5L524.2 465.5L524.7 465.5L524.7 438.1L539.8 438.1L539.8 510.9L524.8 510.9L524.8 502.1L524.2 502.1Q523.1 504.4 521.2 506.6Q519.3 508.9 516.2 510.3Q513.1 511.8 508.7 511.8ZM513.5 499.7L513.5 499.7Q517.2 499.7 519.7 497.7Q522.2 495.7 523.6 492.1Q525.0 488.5 525.0 483.6L525.0 483.6Q525.0 478.7 523.6 475.2Q522.3 471.6 519.7 469.6Q517.2 467.7 513.5 467.7L513.5 467.7Q509.8 467.7 507.2 469.7Q504.7 471.7 503.4 475.3Q502.0 478.9 502.0 483.6L502.0 483.6Q502.0 488.4 503.4 492.0Q504.7 495.6 507.2 497.7Q509.8 499.7 513.5 499.7ZM577.0 511.9L577.0 511.9Q568.6 511.9 562.5 508.5Q556.5 505.1 553.2 498.8Q549.9 492.5 549.9 483.9L549.9 483.9Q549.9 475.4 553.2 469.1Q556.5 462.7 562.4 459.2Q568.4 455.6 576.4 455.6L576.4 455.6Q581.8 455.6 586.5 457.3Q591.1 459.1 594.6 462.5Q598.1 466.0 600.1 471.2Q602.0 476.4 602.0 483.3L602.0 483.3L602.0 487.5L556.0 487.5L556.0 478.1L587.8 478.1Q587.8 474.8 586.4 472.3Q585.0 469.8 582.5 468.4Q579.9 466.9 576.6 466.9L576.6 466.9Q573.2 466.9 570.6 468.5Q567.9 470.1 566.4 472.7Q564.9 475.4 564.9 478.6L564.9 478.6L564.9 487.5Q564.9 491.6 566.4 494.5Q567.9 497.5 570.7 499.0Q573.5 500.6 577.3 500.6L577.3 500.6Q579.8 500.6 581.9 499.9Q584.0 499.2 585.5 497.8Q586.9 496.4 587.7 494.3L587.7 494.3L601.7 495.3Q600.7 500.3 597.4 504.0Q594.1 507.8 588.9 509.9Q583.7 511.9 577.0 511.9ZM666.4 459.1L651.6 459.1Q651.2 454.8 648.0 452.4Q644.8 450.0 639.2 450.0L639.2 450.0Q635.5 450.0 632.9 451.1Q630.3 452.1 628.9 454.0Q627.5 455.8 627.5 458.1L627.5 458.1Q627.5 460.1 628.4 461.5Q629.3 463.0 630.9 464.1Q632.5 465.1 634.6 465.9Q636.7 466.6 639.0 467.2L639.0 467.2L645.6 468.7Q650.3 469.8 654.3 471.6Q658.3 473.3 661.2 475.9Q664.1 478.5 665.7 482.0Q667.3 485.6 667.4 490.1L667.4 490.1Q667.3 496.8 664.0 501.7Q660.6 506.5 654.3 509.2Q648.0 511.9 639.1 511.9L639.1 511.9Q630.3 511.9 623.8 509.2Q617.3 506.5 613.7 501.2Q610.0 495.9 609.8 488.0L609.8 488.0L624.7 488.0Q625.0 491.7 626.8 494.1Q628.7 496.6 631.8 497.8Q635.0 499.0 639.0 499.0L639.0 499.0Q642.9 499.0 645.8 497.9Q648.7 496.7 650.3 494.7Q651.9 492.7 651.9 490.1L651.9 490.1Q651.9 487.6 650.4 485.9Q649.0 484.3 646.2 483.1Q643.5 481.9 639.5 481.0L639.5 481.0L631.6 479.0Q622.4 476.7 617.1 472.0Q611.7 467.2 611.8 459.2L611.8 459.2Q611.7 452.6 615.3 447.6Q618.9 442.7 625.1 439.9Q631.4 437.2 639.3 437.2L639.3 437.2Q647.4 437.2 653.5 439.9Q659.5 442.7 662.9 447.6Q666.3 452.6 666.4 459.1L666.4 459.1ZM692.5 479.3L692.5 479.3L692.5 510.9L677.4 510.9L677.4 456.3L691.8 456.3L691.8 466.0L692.4 466.0Q694.3 461.2 698.5 458.4Q702.8 455.6 708.9 455.6L708.9 455.6Q714.5 455.6 718.8 458.1Q723.0 460.6 725.3 465.2Q727.7 469.8 727.7 476.1L727.7 476.1L727.7 510.9L712.5 510.9L712.5 478.8Q712.6 473.8 710.0 471.0Q707.4 468.2 702.9 468.2L702.9 468.2Q699.8 468.2 697.5 469.5Q695.1 470.8 693.9 473.3Q692.6 475.8 692.5 479.3ZM755.1 511.9L755.1 511.9Q749.9 511.9 745.8 510.1Q741.7 508.2 739.4 504.6Q737.0 501.0 737.0 495.6L737.0 495.6Q737.0 491.1 738.7 488.0Q740.4 484.9 743.2 483.0Q746.1 481.2 749.8 480.2Q753.5 479.2 757.5 478.8L757.5 478.8Q762.3 478.3 765.2 477.9Q768.1 477.5 769.4 476.6Q770.7 475.7 770.7 473.9L770.7 473.9L770.7 473.7Q770.7 470.4 768.6 468.5Q766.5 466.7 762.6 466.7L762.6 466.7Q758.5 466.7 756.1 468.5Q753.7 470.3 752.9 472.9L752.9 472.9L738.9 471.8Q740.0 466.8 743.1 463.2Q746.2 459.6 751.2 457.6Q756.2 455.6 762.7 455.6L762.7 455.6Q767.2 455.6 771.4 456.7Q775.6 457.8 778.8 460.0Q782.1 462.2 784.0 465.7Q785.8 469.2 785.8 474.1L785.8 474.1L785.8 510.9L771.5 510.9L771.5 503.3L771.1 503.3Q769.8 505.9 767.6 507.8Q765.4 509.7 762.3 510.8Q759.2 511.9 755.1 511.9ZM759.5 501.5L759.5 501.5Q762.8 501.5 765.4 500.1Q767.9 498.8 769.4 496.5Q770.8 494.3 770.8 491.4L770.8 491.4L770.8 485.6Q770.1 486.1 768.9 486.4Q767.7 486.8 766.1 487.1Q764.6 487.4 763.1 487.6Q761.6 487.9 760.3 488.0L760.3 488.0Q757.6 488.4 755.7 489.3Q753.7 490.1 752.6 491.6Q751.5 493.0 751.5 495.1L751.5 495.1Q751.5 498.2 753.7 499.8Q756.0 501.5 759.5 501.5ZM812.7 531.3L797.6 531.3L797.6 456.3L812.5 456.3L812.5 465.5L813.2 465.5Q814.2 463.3 816.1 461.0Q818.0 458.7 821.1 457.2Q824.1 455.6 828.7 455.6L828.7 455.6Q834.7 455.6 839.7 458.7Q844.8 461.8 847.8 468.1Q850.8 474.3 850.8 483.7L850.8 483.7Q850.8 492.8 847.9 499.1Q844.9 505.3 839.9 508.5Q834.9 511.8 828.7 511.8L828.7 511.8Q824.3 511.8 821.2 510.3Q818.1 508.9 816.2 506.6Q814.2 504.4 813.2 502.1L813.2 502.1L812.7 502.1L812.7 531.3ZM812.4 483.6L812.4 483.6Q812.4 488.5 813.8 492.1Q815.1 495.7 817.7 497.7Q820.2 499.7 823.9 499.7L823.9 499.7Q827.6 499.7 830.1 497.7Q832.7 495.6 834.0 492.0Q835.3 488.4 835.3 483.6L835.3 483.6Q835.3 478.9 834.0 475.3Q832.7 471.7 830.2 469.7Q827.6 467.7 823.9 467.7L823.9 467.7Q820.2 467.7 817.6 469.6Q815.1 471.6 813.8 475.2Q812.4 478.7 812.4 483.6Z "></path></svg>